<svg xmlns="http://www.w3.org/2000/svg" viewBox="0 0 600 360"><defs>
          <linearGradient id="plastic" x2="0" y2="1"><stop stop-color="#ecece9"/><stop offset=".5" stop-color="#c5c7c9"/><stop offset="1" stop-color="#999da3"/></linearGradient>
          <linearGradient id="black" x2="0" y2="1"><stop stop-color="#45474b"/><stop offset=".5" stop-color="#26282c"/><stop offset="1" stop-color="#131519"/></linearGradient>
          <linearGradient id="purple" x2="0" y2="1"><stop stop-color="#7b77bf"/><stop offset="1" stop-color="#3f3b7b"/></linearGradient>
          <linearGradient id="glass" x2="1" y2="1"><stop stop-color="#667c80"/><stop offset=".45" stop-color="#293d43"/><stop offset="1" stop-color="#17282f"/></linearGradient>
          <linearGradient id="rubber" x2="0" y2="1"><stop stop-color="#51535a"/><stop offset="1" stop-color="#17191c"/></linearGradient>
        </defs><rect x="42" y="65" width="516" height="255" rx="27" fill="#4177a1" stroke="#777f8a" stroke-width="3"/><rect x="213" y="91" width="255" height="187" rx="9" fill="#202328" stroke="#7c7f84" stroke-width="1"/><rect x="223" y="101" width="235" height="167" rx="1" fill="url(#glass)" stroke="#11161a" stroke-width="2"/><path d="M 225 103 H 456 L 225 201.2 Z" fill="#ffffff" opacity=".06" stroke="none" stroke-width="0" stroke-linejoin="round"/><path d="M 115.5 110.5 h 21 v 21 h 21 v 21 h -21 v 21 h -21 v -21 h -21 v -21 h 21 Z" fill="url(#rubber)" stroke="#777a81" stroke-width="2" stroke-linejoin="round"/><circle cx="126" cy="142" r="5.25" fill="#24262a" stroke="#121416" stroke-width="1"/><text x="126" y="126" fill="#dddfe2" font-family="sans-serif" font-size="12" font-weight="600" text-anchor="middle">Y1</text><text x="126" y="168" fill="#dddfe2" font-family="sans-serif" font-size="12" font-weight="600" text-anchor="middle">Y3</text><text x="105" y="147" fill="#dddfe2" font-family="sans-serif" font-size="12" font-weight="600" text-anchor="middle">Y4</text><text x="147" y="147" fill="#dddfe2" font-family="sans-serif" font-size="12" font-weight="600" text-anchor="middle">Y2</text><path d="M 115.5 220.5 h 21 v 21 h 21 v 21 h -21 v 21 h -21 v -21 h -21 v -21 h 21 Z" fill="url(#rubber)" stroke="#777a81" stroke-width="2" stroke-linejoin="round"/><circle cx="126" cy="252" r="5.25" fill="#24262a" stroke="#121416" stroke-width="1"/><text x="126" y="236" fill="#dddfe2" font-family="sans-serif" font-size="12" font-weight="600" text-anchor="middle">X1</text><text x="126" y="278" fill="#dddfe2" font-family="sans-serif" font-size="12" font-weight="600" text-anchor="middle">X3</text><text x="105" y="257" fill="#dddfe2" font-family="sans-serif" font-size="12" font-weight="600" text-anchor="middle">X4</text><text x="147" y="257" fill="#dddfe2" font-family="sans-serif" font-size="12" font-weight="600" text-anchor="middle">X2</text><circle cx="490" cy="249" r="20" fill="#101115" stroke="#111317" stroke-width="0"/><circle cx="490" cy="247" r="18" fill="#434951" stroke="#676970" stroke-width="1.5"/><path d="M 478.3 238.0 Q 490 225.4 501.7 238.0" fill="none" stroke="#ffffff" stroke-width="0.7" stroke-linejoin="round"/><text x="490" y="252" fill="#f4f4f4" font-family="sans-serif" font-size="15" font-weight="600" text-anchor="middle">B</text><circle cx="532" cy="224" r="20" fill="#101115" stroke="#111317" stroke-width="0"/><circle cx="532" cy="222" r="18" fill="#434951" stroke="#676970" stroke-width="1.5"/><path d="M 520.3 213.0 Q 532 200.4 543.7 213.0" fill="none" stroke="#ffffff" stroke-width="0.7" stroke-linejoin="round"/><text x="532" y="227" fill="#f4f4f4" font-family="sans-serif" font-size="15" font-weight="600" text-anchor="middle">A</text><rect x="228" y="292" width="62" height="17" rx="8.5" fill="url(#rubber)" stroke="#5f6267" stroke-width="1"/><text x="259.0" y="304.5" fill="#dddfe2" font-family="sans-serif" font-size="11" font-weight="600" text-anchor="middle">START</text><text x="352" y="301" fill="#edf0f4" font-family="sans-serif" font-size="13" font-weight="600" text-anchor="middle">WONDERSWAN COLOR</text></svg>
